<svg width="157" height="26" viewBox="0 0 157 26" fill="none" xmlns="http://www.w3.org/2000/svg">
<g clip-path="url(#clip0_623_57687)">
<path d="M0 7.76807H3.5805C5.83485 7.76807 7.24922 9.18243 7.24922 11.2603C7.24922 13.3383 5.83485 14.7376 3.5805 14.7376H1.66496V18.2299H0V7.76807ZM3.41813 13.19C4.70017 13.19 5.55423 12.6006 5.55423 11.2594C5.55423 9.91824 4.69923 9.31477 3.41813 9.31477H1.66496V13.19H3.41813Z" fill="white"/>
<path d="M11.1533 7.76807H16.9441V9.31571H12.8183V12.2186H16.3106V13.7212H12.8183V16.6832H17.0764V18.2299H11.1533V7.76807Z" fill="white"/>
<path d="M24.6368 14.6494H22.7362V18.2299H21.0713V7.76807H24.6227C26.8329 7.76807 28.2473 9.18243 28.2473 11.2603C28.2473 12.7779 27.4955 13.8976 26.1994 14.3838L28.7044 18.2299H26.9212L24.6377 14.6494H24.6368ZM24.4303 13.19C25.7123 13.19 26.5523 12.6006 26.5523 11.2594C26.5523 9.91824 25.7123 9.31477 24.4303 9.31477H22.7362V13.19H24.4303Z" fill="white"/>
<path d="M32.6084 7.76803H38.3701V9.28563H34.2734V12.2617H38.0603V13.6761H34.2734V18.2289H32.6084V7.76709V7.76803Z" fill="white"/>
<path d="M42.377 7.76807H48.1677V9.31571H44.0419V12.2186H47.5342V13.7212H44.0419V16.6832H48.3V18.2299H42.377V7.76807Z" fill="white"/>
<path d="M51.4394 12.9989C51.4394 9.77221 53.8852 7.62109 56.8172 7.62109C58.1724 7.62109 59.8524 8.07816 60.9721 9.78722L59.7642 10.6422C58.9984 9.58169 57.8778 9.21284 56.8613 9.21284C54.8134 9.21284 53.1626 10.7014 53.1626 12.9998C53.1626 15.2983 54.8275 16.7868 56.8754 16.7868C57.9068 16.7868 58.9974 16.4189 59.7633 15.3574L60.9711 16.2124C59.8515 17.9215 58.1715 18.3786 56.8163 18.3786C53.8843 18.3786 51.4385 16.2274 51.4385 13.0008L51.4394 12.9989Z" fill="white"/>
<path d="M66.837 9.31473H64.1997V7.76709H71.1402V9.31473H68.5029V18.2289H66.8379V9.31473H66.837Z" fill="white"/>
<path d="M82.4305 6.93311C79.8082 7.20622 77.3361 8.18886 75.2479 9.79375C75.1578 9.8632 75.1193 9.9824 75.1512 10.0903C76.4229 14.3428 79.5604 17.7075 83.6553 19.2814C83.1184 18.3504 82.682 17.3611 82.3526 16.3288C81.3774 13.2729 81.4084 9.96175 82.4305 6.93311Z" fill="url(#paint0_linear_623_57687)"/>
<path d="M79.7883 18.0981C79.2383 20.6772 79.4082 23.3305 80.2895 25.8129C80.327 25.9199 80.4293 25.994 80.5419 25.9959C84.9793 26.1001 89.1483 24.1564 91.9113 20.7486C90.8592 20.971 89.7846 21.0799 88.7006 21.0752C85.4927 21.0583 82.3533 20.0052 79.7892 18.0981H79.7883Z" fill="url(#paint1_linear_623_57687)"/>
<path d="M89.5908 24.0634C91.8733 25.3839 94.4505 26.0418 97.0831 25.9714C97.1967 25.9686 97.298 25.8944 97.3356 25.7884C98.8063 21.5997 98.246 17.0347 95.8583 13.3538C95.7448 14.4227 95.5167 15.4795 95.177 16.5082C94.169 19.5537 92.1981 22.2135 89.5918 24.0634H89.5908Z" fill="url(#paint2_linear_623_57687)"/>
<path d="M90.0429 7.31227C91.0246 7.75056 91.9594 8.29397 92.8322 8.93499C95.4179 10.8346 97.3381 13.531 98.2917 16.5812C100.253 14.8187 101.675 12.5709 102.421 10.0453C102.453 9.93641 102.415 9.81721 102.325 9.7487C98.7957 7.05605 94.2813 6.17852 90.042 7.31133L90.0429 7.31227Z" fill="url(#paint3_linear_623_57687)"/>
<path d="M88.7699 0C88.7154 0 88.661 0.0159545 88.6141 0.0478646C84.9623 2.57158 82.7323 6.59413 82.5005 10.9761C83.2203 10.1784 84.0265 9.45759 84.9059 8.82502C87.5113 6.95359 90.6685 5.95968 93.8652 5.99534C92.7943 3.58519 91.0965 1.53825 88.9257 0.0478646C88.8788 0.0159545 88.8243 0 88.7689 0H88.7699Z" fill="url(#paint4_linear_623_57687)"/>
<path d="M87.2446 12.3229L88.4065 10.6401C88.6064 10.3726 88.965 10.3726 89.1649 10.6401L90.3268 12.3229" stroke="white" stroke-width="0.335995" stroke-miterlimit="10" stroke-linecap="round"/>
<path d="M85.978 13.1169H85.3548C84.7926 13.1169 84.4031 13.6772 84.5993 14.2047L85.6514 17.0297C85.7668 17.3385 86.0615 17.5431 86.3909 17.5431H91.1812C91.5106 17.5431 91.8053 17.3385 91.9208 17.0297L92.9728 14.2047C93.169 13.6782 92.7795 13.1169 92.2173 13.1169H87.0441C86.7607 13.1169 86.5176 13.2605 86.3731 13.4717" stroke="white" stroke-width="0.335995" stroke-miterlimit="10" stroke-linecap="round"/>
<path opacity="0.4" d="M91.7926 17.0324H87.0023C86.6729 17.0324 86.3782 16.8278 86.2628 16.5191L85.3974 14.1971C85.2013 13.6706 85.5908 13.1094 86.1529 13.1094H85.3533C84.7911 13.1094 84.4016 13.6697 84.5978 14.1971L85.6499 17.0221C85.7653 17.3309 86.06 17.5355 86.3895 17.5355H91.1797C91.5091 17.5355 91.8038 17.3309 91.9193 17.0221L91.7926 17.0315V17.0324Z" fill="white"/>
<path opacity="0.4" d="M92.1375 16.4233H89.81C89.5481 16.7115 89.1737 16.8935 88.7579 16.8851C88.3562 16.8776 87.9977 16.7002 87.7471 16.4233H87.4468C87.1586 16.4233 86.9034 16.2366 86.8151 15.9616L86.0577 13.588C85.9883 13.3909 86.0887 13.268 86.1366 13.1582H85.7987L85.3548 13.1094C84.7926 13.1094 84.4031 13.6697 84.5993 14.1971L85.6514 17.0221C85.7668 17.3309 86.0615 17.5355 86.3909 17.5355H91.1812C91.5106 17.5355 91.9104 17.406 92.1638 16.4139L92.1394 16.4233H92.1375Z" fill="white"/>
<path d="M87.3843 15.4838C87.3843 16.2487 87.9971 16.871 88.7583 16.8851C89.5194 16.8992 90.1877 16.2422 90.1877 15.4557V14.0451C90.1877 14.0075 90.1567 13.9766 90.1192 13.9766H89.129C89.0915 13.9766 89.0605 14.0075 89.0605 14.0451V15.4726C89.0605 15.6227 88.9451 15.7541 88.7949 15.7579C88.6447 15.7617 88.5124 15.6378 88.5124 15.4838V14.0451C88.5124 14.0075 88.4814 13.9766 88.4439 13.9766H87.4537C87.4162 13.9766 87.3852 14.0075 87.3852 14.0451V15.4838H87.3843Z" stroke="white" stroke-width="0.162366" stroke-miterlimit="10"/>
<path d="M106.434 15.6432L107.187 15.3281C107.474 16.4792 108.365 17.1906 109.625 17.1906C110.789 17.1906 111.762 16.5464 111.762 15.3281C111.762 14.177 110.913 13.6841 109.708 13.2051L109.063 12.9447C107.597 12.3691 106.831 11.5471 106.831 10.3834C106.831 8.94525 108.009 8 109.556 8C111.104 8 112.008 8.95925 112.364 10.0137L111.679 10.3428C111.31 9.41157 110.639 8.79541 109.542 8.79541C108.446 8.79541 107.694 9.39757 107.694 10.3848C107.694 11.1662 108.187 11.7684 109.35 12.2333L110.007 12.4938C111.541 13.1099 112.623 13.7947 112.623 15.3295C112.623 17.0422 111.226 18 109.596 18C107.966 18 106.747 17.0408 106.432 15.6446L106.434 15.6432Z" fill="white"/>
<path d="M118.788 8.94644H116.103V8.13843H122.322V8.94644H119.638V17.8626H118.789V8.94644H118.788Z" fill="white"/>
<path d="M125.772 13.0005C125.772 10.0009 128.073 8.00122 130.677 8.00122C133.28 8.00122 135.581 10.0009 135.581 13.0005C135.581 16.0001 133.266 17.9998 130.677 17.9998C128.087 17.9998 125.772 16.0001 125.772 13.0005ZM134.717 13.0005C134.717 10.4673 132.785 8.82323 130.677 8.82323C128.568 8.82323 126.636 10.4673 126.636 13.0005C126.636 15.5338 128.568 17.1778 130.677 17.1778C132.785 17.1778 134.717 15.5338 134.717 13.0005Z" fill="white"/>
<path d="M143.467 14.3154H141.084V17.8626H140.235V8.13843H143.249C145.289 8.13843 146.495 9.46738 146.495 11.2332C146.495 12.6994 145.714 13.8225 144.303 14.1922L146.796 17.8626H145.851L143.467 14.3154ZM143.138 13.534C144.673 13.534 145.617 12.712 145.617 11.2332C145.617 9.75445 144.672 8.94644 143.138 8.94644H141.084V13.5354H143.138V13.534Z" fill="white"/>
<path d="M151.288 8.13843H156.37V8.94644H152.138V12.5902H155.767V13.3716H152.138V17.0559H156.493V17.864H151.288V8.13983V8.13843Z" fill="white"/>
</g>
<defs>
<linearGradient id="paint0_linear_623_57687" x1="78.6735" y1="7.24282" x2="79.873" y2="19.5216" gradientUnits="userSpaceOnUse">
<stop stop-color="#FCD6A3"/>
<stop offset="0.5" stop-color="#ECA450"/>
<stop offset="1" stop-color="#9B6427"/>
</linearGradient>
<linearGradient id="paint1_linear_623_57687" x1="78.8122" y1="21.1352" x2="90.7175" y2="24.7364" gradientUnits="userSpaceOnUse">
<stop stop-color="#E6ECA1"/>
<stop offset="0.5" stop-color="#B3BE49"/>
<stop offset="1" stop-color="#80892C"/>
</linearGradient>
<linearGradient id="paint2_linear_623_57687" x1="92.7236" y1="25.5284" x2="99.0334" y2="15.8334" gradientUnits="userSpaceOnUse">
<stop stop-color="#9BEEDA"/>
<stop offset="0.5" stop-color="#18C7A3"/>
<stop offset="1" stop-color="#00856B"/>
</linearGradient>
<linearGradient id="paint3_linear_623_57687" x1="93.37" y1="4.96031" x2="101.045" y2="14.6826" gradientUnits="userSpaceOnUse">
<stop stop-color="#833585"/>
<stop offset="0.5" stop-color="#DB6EDE"/>
<stop offset="1" stop-color="#EAB1EA"/>
</linearGradient>
<linearGradient id="paint4_linear_623_57687" x1="81.5911" y1="7.15537" x2="92.5174" y2="2.62038" gradientUnits="userSpaceOnUse">
<stop stop-color="#A0382F"/>
<stop offset="0.5" stop-color="#F06A5C"/>
<stop offset="1" stop-color="#F9B9B2"/>
</linearGradient>
<clipPath id="clip0_623_57687">
<rect width="156.493" height="25.9999" fill="white"/>
</clipPath>
</defs>
</svg>
